<svg xmlns="http://www.w3.org/2000/svg" xmlns:xlink="http://www.w3.org/1999/xlink" xmlns:lucid="lucid" width="1155.5" height="811.19"><g transform="translate(-180 -40)" lucid:page-tab-id="0_0"><path d="M0 0h1870.87v1322.83H0z" fill="#fff"/><path d="M200 100h200v60H200z" stroke="#3a414a" fill="#fff3d9"/><use xlink:href="#a" transform="matrix(1,0,0,1,212,112) translate(69.48148148148148 22.27777777777778)"/><path d="M200 160h200v60H200z" stroke="#3a414a" fill="#fff3d9"/><use xlink:href="#b" transform="matrix(1,0,0,1,212,172) translate(69.48148148148148 22.27777777777778)"/><path d="M200 220h200v60H200z" stroke="#3a414a" fill="#fff3d9"/><use xlink:href="#c" transform="matrix(1,0,0,1,212,232) translate(69.48148148148148 22.27777777777778)"/><path d="M200 66a6 6 0 0 1 6-6h108a6 6 0 0 1 6 6v48a6 6 0 0 1-6 6H206a6 6 0 0 1-6-6z" stroke="#000" stroke-opacity="0" fill="#fff" fill-opacity="0"/><use xlink:href="#d" transform="matrix(1,0,0,1,205,65) translate(0 30.27777777777778)"/><use xlink:href="#e" transform="matrix(1,0,0,1,205,65) translate(55.55555555555556 30.27777777777778)"/><path d="M200 366a6 6 0 0 1 6-6h108a6 6 0 0 1 6 6v48a6 6 0 0 1-6 6H206a6 6 0 0 1-6-6z" stroke="#000" stroke-opacity="0" fill="#fff" fill-opacity="0"/><use xlink:href="#d" transform="matrix(1,0,0,1,205.00000000000006,365) translate(0 30.27777777777778)"/><use xlink:href="#f" transform="matrix(1,0,0,1,205.00000000000006,365) translate(55.55555555555556 30.27777777777778)"/><path d="M200 677.2a6 6 0 0 1 6-6h108a6 6 0 0 1 6 6v48a6 6 0 0 1-6 6H206a6 6 0 0 1-6-6z" stroke="#000" stroke-opacity="0" fill="#fff" fill-opacity="0"/><use xlink:href="#d" transform="matrix(1,0,0,1,205,676.1856950388491) translate(0 30.27777777777778)"/><use xlink:href="#g" transform="matrix(1,0,0,1,205,676.1856950388491) translate(55.55555555555556 30.27777777777778)"/><path d="M200 711.2h200v60H200z" stroke="#3a414a" fill="#edf5ff"/><use xlink:href="#h" transform="matrix(1,0,0,1,212,723.1856950388491) translate(72.5679012345679 22.27777777777778)"/><path d="M840 436a6 6 0 0 1 6-6h148a6 6 0 0 1 6 6v108a6 6 0 0 1-6 6H846a6 6 0 0 1-6-6z" stroke="#3a414a" fill="#fff"/><use xlink:href="#i" transform="matrix(1,0,0,1,852,442) translate(51.333333333333336 53.77777777777778)"/><path d="M200 460h200v60H200z" stroke="#3a414a" fill="#fff3d9"/><use xlink:href="#a" transform="matrix(1,0,0,1,212,472) translate(69.48148148148148 22.27777777777778)"/><path d="M200 520h200v60H200z" stroke="#3a414a" fill="#fff3d9"/><use xlink:href="#b" transform="matrix(1,0,0,1,212,532) translate(69.48148148148148 22.27777777777778)"/><path d="M200 580h200v60H200z" stroke="#3a414a" fill="#fff3d9"/><use xlink:href="#c" transform="matrix(1,0,0,1,212,592) translate(69.48148148148148 22.27777777777778)"/><path d="M200 400h200v60H200z" stroke="#3a414a" fill="#fff3d9"/><use xlink:href="#j" transform="matrix(1,0,0,1,212.00000000000006,412) translate(69.48148148148148 22.27777777777778)"/><path d="M501 741.2h413a6 6 0 0 0 6-6V566.84" stroke="#3a414a" fill="none"/><path d="M501 741.7h-.56l.06-.5-.02-.5h.53z" stroke="#3a414a" stroke-width=".05" fill="#3a414a"/><path d="M920 552.08l4.64 14.27h-9.28z" stroke="#3a414a" fill="#3a414a"/><path d="M401 741.2h58" stroke="#3a414a" fill="none"/><path d="M401 741.7h-.5v-1h.5zM459.5 741.16l.02.53H459v-1h.56z" stroke="#3a414a" stroke-width=".05" fill="#3a414a"/><path d="M540 136a6 6 0 0 1 6-6h148a6 6 0 0 1 6 6v108a6 6 0 0 1-6 6H546a6 6 0 0 1-6-6z" stroke="#3a414a" fill="#fff"/><use xlink:href="#k" transform="matrix(1,0,0,1,552,142) translate(37.135802469135804 53.77777777777778)"/><path d="M401 190h44" stroke="#3a414a" fill="none"/><path d="M401 190.5h-.5v-1h.5zM445.5 189.98l.02.52H445v-1h.56z" stroke="#3a414a" stroke-width=".05" fill="#3a414a"/><path d="M487 190h36.15" stroke="#3a414a" fill="none"/><path d="M487 190.5h-.56l.06-.48-.02-.52h.53z" stroke="#3a414a" stroke-width=".05" fill="#3a414a"/><path d="M537.92 190l-14.27 4.64v-9.28z" stroke="#3a414a" fill="#3a414a"/><path d="M580 436a6 6 0 0 1 6-6h148a6 6 0 0 1 6 6v108a6 6 0 0 1-6 6H586a6 6 0 0 1-6-6z" stroke="#3a414a" fill="#fff"/><use xlink:href="#l" transform="matrix(1,0,0,1,592,442) translate(20.530864197530853 53.77777777777778)"/><path d="M501 490h62.15" stroke="#3a414a" fill="none"/><path d="M501 490.5h-.56l.06-.48-.02-.52h.53z" stroke="#3a414a" stroke-width=".05" fill="#3a414a"/><path d="M577.92 490l-14.27 4.64v-9.28z" stroke="#3a414a" fill="#3a414a"/><path d="M401 490h58" stroke="#3a414a" fill="none"/><path d="M401 490.5h-.5v-1h.5zM459.5 489.98l.02.52H459v-1h.56z" stroke="#3a414a" stroke-width=".05" fill="#3a414a"/><path d="M740.96 490h23.54" stroke="#3a414a" fill="none"/><path d="M740.98 490.5h-.52v-1h.52zM765 489.98l.02.52h-.53v-1h.56z" stroke="#3a414a" stroke-width=".05" fill="#3a414a"/><path d="M806.5 490h16.65" stroke="#3a414a" fill="none"/><path d="M806.5 490.5h-.56l.06-.48-.02-.52h.53z" stroke="#3a414a" stroke-width=".05" fill="#3a414a"/><path d="M837.92 490l-14.27 4.64v-9.28z" stroke="#3a414a" fill="#3a414a"/><path d="M831 466a6 6 0 0 1 6-6h28a6 6 0 0 1 6 6v48a6 6 0 0 1-6 6h-28a6 6 0 0 1-6-6z" stroke="#000" stroke-opacity="0" fill="#fff" fill-opacity="0"/><use xlink:href="#m" transform="matrix(1,0,0,1,836,465) translate(8.827160493827162 30.27777777777778)"/><path d="M900 516a6 6 0 0 1 6-6h28a6 6 0 0 1 6 6v48a6 6 0 0 1-6 6h-28a6 6 0 0 1-6-6z" stroke="#000" stroke-opacity="0" fill="#fff" fill-opacity="0"/><use xlink:href="#n" transform="matrix(1,0,0,1,905,515) translate(8.827160493827162 30.27777777777778)"/><path d="M532 166a6 6 0 0 1 6-6h28a6 6 0 0 1 6 6v48a6 6 0 0 1-6 6h-28a6 6 0 0 1-6-6z" stroke="#000" stroke-opacity="0" fill="#fff" fill-opacity="0"/><use xlink:href="#m" transform="matrix(1,0,0,1,537,165) translate(8.827160493827162 30.27777777777778)"/><path d="M1029 136a6 6 0 0 1 6-6h148a6 6 0 0 1 6 6v108a6 6 0 0 1-6 6h-148a6 6 0 0 1-6-6z" stroke="#3a414a" fill="#fff"/><use xlink:href="#o" transform="matrix(1,0,0,1,1041,142) translate(49.17283950617284 53.77777777777778)"/><path d="M1020 166a6 6 0 0 1 6-6h28a6 6 0 0 1 6 6v48a6 6 0 0 1-6 6h-28a6 6 0 0 1-6-6z" stroke="#000" stroke-opacity="0" fill="#fff" fill-opacity="0"/><use xlink:href="#m" transform="matrix(1,0,0,1,1025,165) translate(8.827160493827162 30.27777777777778)"/><path d="M1089 216a6 6 0 0 1 6-6h28a6 6 0 0 1 6 6v48a6 6 0 0 1-6 6h-28a6 6 0 0 1-6-6z" stroke="#000" stroke-opacity="0" fill="#fff" fill-opacity="0"/><use xlink:href="#n" transform="matrix(1,0,0,1,1094,215) translate(8.827160493827162 30.27777777777778)"/><path d="M700.96 190H790" stroke="#3a414a" fill="none"/><path d="M700.98 190.5h-.52v-1h.52zM790.5 189.98l.02.52H790v-1h.56z" stroke="#3a414a" stroke-width=".05" fill="#3a414a"/><path d="M832 190h180.15" stroke="#3a414a" fill="none"/><path d="M832 190.5h-.56l.06-.48-.02-.52h.53z" stroke="#3a414a" stroke-width=".05" fill="#3a414a"/><path d="M1026.92 190l-14.27 4.64v-9.28z" stroke="#3a414a" fill="#3a414a"/><path d="M1000.96 490H1048" stroke="#3a414a" fill="none"/><path d="M1000.98 490.5h-.52v-1h.52zM1048.5 489.98l.02.52h-.53v-1h.56z" stroke="#3a414a" stroke-width=".05" fill="#3a414a"/><path d="M1090 490h13a6 6 0 0 0 6-6V266.85" stroke="#3a414a" fill="none"/><path d="M1090 490.5h-.56l.06-.48-.02-.52h.53z" stroke="#3a414a" stroke-width=".05" fill="#3a414a"/><path d="M1109 252.08l4.64 14.27h-9.28z" stroke="#3a414a" fill="#3a414a"/><path d="M486 190c0 11.05-8.95 20-20 20s-20-8.95-20-20 8.95-20 20-20 20 8.95 20 20z" stroke="#3a414a" fill="#282c33"/><use xlink:href="#p" transform="matrix(1,0,0,1,451,175) translate(7.597592592592593 19.65277777777778)"/><path d="M831 190c0 11.05-8.95 20-20 20s-20-8.95-20-20 8.95-20 20-20 20 8.95 20 20z" stroke="#3a414a" fill="#282c33"/><use xlink:href="#q" transform="matrix(1,0,0,1,796,175) translate(7.597592592592593 19.65277777777778)"/><path d="M500 490c0 11.05-8.95 20-20 20s-20-8.95-20-20 8.95-20 20-20 20 8.95 20 20z" stroke="#3a414a" fill="#282c33"/><use xlink:href="#r" transform="matrix(1,0,0,1,465,475) translate(7.011172839506173 19.65277777777778)"/><path d="M805.5 490c0 11.05-8.95 20-20 20s-20-8.95-20-20 8.95-20 20-20 20 8.95 20 20z" stroke="#3a414a" fill="#282c33"/><use xlink:href="#s" transform="matrix(1,0,0,1,770.5,475) translate(7.011172839506173 19.65277777777778)"/><path d="M1089 490c0 11.05-8.95 20-20 20s-20-8.95-20-20 8.95-20 20-20 20 8.95 20 20z" stroke="#3a414a" fill="#282c33"/><use xlink:href="#t" transform="matrix(1,0,0,1,1054,475) translate(8.245740740740741 19.65277777777778)"/><path d="M500 741.2c0 11.03-8.95 20-20 20s-20-8.97-20-20c0-11.06 8.95-20 20-20s20 8.94 20 20z" stroke="#3a414a" fill="#282c33"/><use xlink:href="#u" transform="matrix(1,0,0,1,465,726.1856950388491) translate(7.597592592592593 19.65277777777778)"/><path d="M1280 190c0 11.05-8.95 20-20 20s-20-8.95-20-20 8.95-20 20-20 20 8.95 20 20z" stroke="#3a414a" fill="#282c33"/><use xlink:href="#v" transform="matrix(1,0,0,1,1245,175) translate(6.363024691358024 17.77777777777778)"/><path d="M1189.96 190h33.16" stroke="#3a414a" fill="none"/><path d="M1189.98 190.5h-.52v-1h.52z" stroke="#3a414a" stroke-width=".05" fill="#3a414a"/><path d="M1237.88 190l-14.26 4.64v-9.28z" stroke="#3a414a" fill="#3a414a"/><path d="M380 246a6 6 0 0 1 6-6h148a6 6 0 0 1 6 6v51.33a6 6 0 0 1-6 6H386a6 6 0 0 1-6-6z" stroke="#000" stroke-opacity="0" fill="#fff" fill-opacity="0"/><use xlink:href="#w" transform="matrix(1,0,0,1,385,245) translate(26.9921875 16.171875)"/><use xlink:href="#x" transform="matrix(1,0,0,1,385,245) translate(46.1953125 16.171875)"/><use xlink:href="#y" transform="matrix(1,0,0,1,385,245) translate(36.59375 32.171875)"/><use xlink:href="#z" transform="matrix(1,0,0,1,385,245) translate(31.79296875 48.171875)"/><use xlink:href="#A" transform="matrix(1,0,0,1,385,245) translate(108.60546875 48.171875)"/><path d="M691 226a6 6 0 0 1 6-6h228a6 6 0 0 1 6 6v48a6 6 0 0 1-6 6H697a6 6 0 0 1-6-6z" stroke="#000" stroke-opacity="0" fill="#fff" fill-opacity="0"/><use xlink:href="#B" transform="matrix(1,0,0,1,696,225) translate(62.19140625 28.421875)"/><use xlink:href="#C" transform="matrix(1,0,0,1,696,225) translate(81.39453125 28.421875)"/><use xlink:href="#D" transform="matrix(1,0,0,1,696,225) translate(158.20703125 28.421875)"/><path d="M420 526a6 6 0 0 1 6-6h109a6 6 0 0 1 6 6v90.85a6 6 0 0 1-6 6H426a6 6 0 0 1-6-6z" stroke="#000" stroke-opacity="0" fill="#fff" fill-opacity="0"/><use xlink:href="#B" transform="matrix(1,0,0,1,425,525) translate(7.4921875 27.328125)"/><use xlink:href="#E" transform="matrix(1,0,0,1,425,525) translate(26.6953125 27.328125)"/><use xlink:href="#F" transform="matrix(1,0,0,1,425,525) translate(17.09375 43.328125)"/><use xlink:href="#G" transform="matrix(1,0,0,1,425,525) translate(17.09375 59.328125)"/><use xlink:href="#H" transform="matrix(1,0,0,1,425,525) translate(12.29296875 75.328125)"/><use xlink:href="#D" transform="matrix(1,0,0,1,425,525) translate(89.10546875 75.328125)"/><path d="M725.5 516a6 6 0 0 1 6-6h108a6 6 0 0 1 6 6v99.2a6 6 0 0 1-6 6h-108a6 6 0 0 1-6-6z" stroke="#000" stroke-opacity="0" fill="#fff" fill-opacity="0"/><g><use xlink:href="#B" transform="matrix(1,0,0,1,730.5,515) translate(11.79296875 31.921875)"/><use xlink:href="#I" transform="matrix(1,0,0,1,730.5,515) translate(30.99609375 31.921875)"/><use xlink:href="#J" transform="matrix(1,0,0,1,730.5,515) translate(26.1953125 47.921875)"/><use xlink:href="#K" transform="matrix(1,0,0,1,730.5,515) translate(26.1953125 63.921875)"/><use xlink:href="#L" transform="matrix(1,0,0,1,730.5,515) translate(16.59375 79.921875)"/><use xlink:href="#D" transform="matrix(1,0,0,1,730.5,515) translate(83.8046875 79.921875)"/></g><path d="M360 777.2a6 6 0 0 1 6-6h228a6 6 0 0 1 6 6v48a6 6 0 0 1-6 6H366a6 6 0 0 1-6-6z" stroke="#000" stroke-opacity="0" fill="#fff" fill-opacity="0"/><g><use xlink:href="#M" transform="matrix(1,0,0,1,365,776.1856950388491) translate(100.59765625 28.421875)"/></g><path d="M1034.5 515.8H1160V640h-125.5z" fill="#fff" fill-opacity="0"/><g><use xlink:href="#B" transform="matrix(1,0,0,1,1039.5,520.8143049611509) translate(14.79296875 12.796875)"/><use xlink:href="#N" transform="matrix(1,0,0,1,1039.5,520.8143049611509) translate(33.99609375 12.796875)"/><use xlink:href="#J" transform="matrix(1,0,0,1,1039.5,520.8143049611509) translate(29.1953125 28.796875)"/><use xlink:href="#K" transform="matrix(1,0,0,1,1039.5,520.8143049611509) translate(29.1953125 44.796875)"/><use xlink:href="#O" transform="matrix(1,0,0,1,1039.5,520.8143049611509) translate(5.19140625 60.796875)"/><use xlink:href="#P" transform="matrix(1,0,0,1,1039.5,520.8143049611509) translate(72.40234375 60.796875)"/><use xlink:href="#D" transform="matrix(1,0,0,1,1039.5,520.8143049611509) translate(101.20703125 60.796875)"/></g><path d="M1204.5 220h111v142h-111z" fill="#fff" fill-opacity="0"/><g><use xlink:href="#B" transform="matrix(1,0,0,1,1209.5,225) translate(7.29296875 12.796875)"/><use xlink:href="#I" transform="matrix(1,0,0,1,1209.5,225) translate(26.49609375 12.796875)"/><use xlink:href="#J" transform="matrix(1,0,0,1,1209.5,225) translate(21.6953125 28.796875)"/><use xlink:href="#K" transform="matrix(1,0,0,1,1209.5,225) translate(21.6953125 44.796875)"/><use xlink:href="#O" transform="matrix(1,0,0,1,1209.5,225) translate(7.29296875 60.796875)"/><use xlink:href="#Q" transform="matrix(1,0,0,1,1209.5,225) translate(74.50390625 60.796875)"/><use xlink:href="#R" transform="matrix(1,0,0,1,1209.5,225) translate(12.09375 76.796875)"/><use xlink:href="#D" transform="matrix(1,0,0,1,1209.5,225) translate(79.3046875 76.796875)"/></g><defs><path fill="#3a414a" d="M110-160c48 1 74 30 74 79 0 53-28 85-80 85-65 0-83-55-86-122-5-90 50-162 133-122 14 7 22 21 27 39l-31 6c-5-40-67-38-82-6-9 19-15 44-15 74 11-20 30-34 60-33zm-7 138c34 0 49-23 49-58s-16-56-50-56c-29 0-50 16-49 49 1 36 15 65 50 65" id="S"/><path fill="#3a414a" d="M155-56V0h-30v-56H8v-25l114-167h33v167h35v25h-35zm-30-156c-27 46-58 90-88 131h88v-131" id="T"/><path fill="#3a414a" d="M101-251c68 0 85 55 85 127S166 4 100 4C33 4 14-52 14-124c0-73 17-127 87-127zm-1 229c47 0 54-49 54-102s-4-102-53-102c-51 0-55 48-55 102 0 53 5 102 54 102" id="U"/><g id="a"><use transform="matrix(0.06172839506172839,0,0,0.06172839506172839,0,0)" xlink:href="#S"/><use transform="matrix(0.06172839506172839,0,0,0.06172839506172839,12.345679012345679,0)" xlink:href="#T"/><use transform="matrix(0.06172839506172839,0,0,0.06172839506172839,24.691358024691358,0)" xlink:href="#U"/></g><path fill="#3a414a" d="M54-142c48-35 137-8 131 61C196 18 31 33 14-55l32-4c7 23 22 37 52 37 35-1 51-22 54-58 4-55-73-65-99-34H22l8-134h141v27H59" id="V"/><g id="b"><use transform="matrix(0.06172839506172839,0,0,0.06172839506172839,0,0)" xlink:href="#V"/><use transform="matrix(0.06172839506172839,0,0,0.06172839506172839,12.345679012345679,0)" xlink:href="#T"/><use transform="matrix(0.06172839506172839,0,0,0.06172839506172839,24.691358024691358,0)" xlink:href="#U"/></g><g id="c"><use transform="matrix(0.06172839506172839,0,0,0.06172839506172839,0,0)" xlink:href="#T"/><use transform="matrix(0.06172839506172839,0,0,0.06172839506172839,12.345679012345679,0)" xlink:href="#T"/><use transform="matrix(0.06172839506172839,0,0,0.06172839506172839,24.691358024691358,0)" xlink:href="#U"/></g><path fill="#3a414a" d="M33 0v-248h34V0H33" id="W"/><path fill="#3a414a" d="M117-194c89-4 53 116 60 194h-32v-121c0-31-8-49-39-48C34-167 62-67 57 0H25l-1-190h30c1 10-1 24 2 32 11-22 29-35 61-36" id="X"/><path fill="#3a414a" d="M115-194c55 1 70 41 70 98S169 2 115 4C84 4 66-9 55-30l1 105H24l-1-265h31l2 30c10-21 28-34 59-34zm-8 174c40 0 45-34 45-75s-6-73-45-74c-42 0-51 32-51 76 0 43 10 73 51 73" id="Y"/><path fill="#3a414a" d="M84 4C-5 8 30-112 23-190h32v120c0 31 7 50 39 49 72-2 45-101 50-169h31l1 190h-30c-1-10 1-25-2-33-11 22-28 36-60 37" id="Z"/><path fill="#3a414a" d="M59-47c-2 24 18 29 38 22v24C64 9 27 4 27-40v-127H5v-23h24l9-43h21v43h35v23H59v120" id="aa"/><g id="d"><use transform="matrix(0.06172839506172839,0,0,0.06172839506172839,0,0)" xlink:href="#W"/><use transform="matrix(0.06172839506172839,0,0,0.06172839506172839,6.172839506172839,0)" xlink:href="#X"/><use transform="matrix(0.06172839506172839,0,0,0.06172839506172839,18.51851851851852,0)" xlink:href="#Y"/><use transform="matrix(0.06172839506172839,0,0,0.06172839506172839,30.864197530864196,0)" xlink:href="#Z"/><use transform="matrix(0.06172839506172839,0,0,0.06172839506172839,43.20987654320987,0)" xlink:href="#aa"/></g><use transform="matrix(0.06172839506172839,0,0,0.06172839506172839,0,0)" xlink:href="#U" id="e"/><path fill="#3a414a" d="M27 0v-27h64v-190l-56 39v-29l58-41h29v221h61V0H27" id="ab"/><use transform="matrix(0.06172839506172839,0,0,0.06172839506172839,0,0)" xlink:href="#ab" id="f"/><path fill="#3a414a" d="M101-251c82-7 93 87 43 132L82-64C71-53 59-42 53-27h129V0H18c2-99 128-94 128-182 0-28-16-43-45-43s-46 15-49 41l-32-3c6-41 34-60 81-64" id="ac"/><use transform="matrix(0.06172839506172839,0,0,0.06172839506172839,0,0)" xlink:href="#ac" id="g"/><path fill="#3a414a" d="M33 0v-38h34V0H33" id="ad"/><g id="h"><use transform="matrix(0.06172839506172839,0,0,0.06172839506172839,0,0)" xlink:href="#U"/><use transform="matrix(0.06172839506172839,0,0,0.06172839506172839,12.345679012345679,0)" xlink:href="#ad"/><use transform="matrix(0.06172839506172839,0,0,0.06172839506172839,18.51851851851852,0)" xlink:href="#ac"/></g><path fill="#3a414a" d="M141-36C126-15 110 5 73 4 37 3 15-17 15-53c-1-64 63-63 125-63 3-35-9-54-41-54-24 1-41 7-42 31l-33-3c5-37 33-52 76-52 45 0 72 20 72 64v82c-1 20 7 32 28 27v20c-31 9-61-2-59-35zM48-53c0 20 12 33 32 33 41-3 63-29 60-74-43 2-92-5-92 41" id="ae"/><path fill="#3a414a" d="M80-196l47-18 7 23-49 13 32 44-20 13-27-46-27 45-21-12 33-44-49-13 8-23 47 19-2-53h23" id="af"/><path fill="#3a414a" d="M115-194c53 0 69 39 70 98 0 66-23 100-70 100C84 3 66-7 56-30L54 0H23l1-261h32v101c10-23 28-34 59-34zm-8 174c40 0 45-34 45-75 0-40-5-75-45-74-42 0-51 32-51 76 0 43 10 73 51 73" id="ag"/><g id="i"><use transform="matrix(0.06172839506172839,0,0,0.06172839506172839,0,0)" xlink:href="#ae"/><use transform="matrix(0.06172839506172839,0,0,0.06172839506172839,12.345679012345679,0)" xlink:href="#af"/><use transform="matrix(0.06172839506172839,0,0,0.06172839506172839,20.98765432098765,0)" xlink:href="#ag"/></g><path fill="#3a414a" d="M64 0c3-98 48-159 88-221H18v-27h164v26C143-157 98-101 97 0H64" id="ah"/><path fill="#3a414a" d="M134-131c28 9 52 24 51 62-1 50-34 73-85 73S17-19 16-69c0-36 21-54 49-61-75-25-45-126 34-121 46 3 78 18 79 63 0 33-17 51-44 57zm-34-11c31 1 46-15 46-44 0-28-17-43-47-42-29 0-46 13-45 42 1 28 16 44 46 44zm1 122c35 0 51-18 51-52 0-30-18-46-53-46-33 0-51 17-51 47 0 34 19 51 53 51" id="ai"/><g id="j"><use transform="matrix(0.06172839506172839,0,0,0.06172839506172839,0,0)" xlink:href="#ah"/><use transform="matrix(0.06172839506172839,0,0,0.06172839506172839,12.345679012345679,0)" xlink:href="#ai"/><use transform="matrix(0.06172839506172839,0,0,0.06172839506172839,24.691358024691358,0)" xlink:href="#U"/></g><path fill="#3a414a" d="M194-70c0 46-34 64-81 66v29H91V-4C42-5 12-27 4-67l30-6c5 28 25 41 57 43v-87c-38-9-76-20-76-67 1-42 33-58 76-59v-23h22v23c45 0 67 20 76 56l-31 6c-5-23-18-35-45-37v78c41 10 81 20 81 70zm-81 41c51 7 71-66 19-77-6-2-12-4-19-6v83zM91-219c-47-6-63 57-18 69 6 2 12 3 18 5v-74" id="aj"/><g id="k"><use transform="matrix(0.06172839506172839,0,0,0.06172839506172839,0,0)" xlink:href="#ae"/><use transform="matrix(0.06172839506172839,0,0,0.06172839506172839,12.345679012345679,0)" xlink:href="#aj"/><use transform="matrix(0.06172839506172839,0,0,0.06172839506172839,24.691358024691358,0)" xlink:href="#V"/><use transform="matrix(0.06172839506172839,0,0,0.06172839506172839,37.03703703703704,0)" xlink:href="#T"/><use transform="matrix(0.06172839506172839,0,0,0.06172839506172839,49.382716049382715,0)" xlink:href="#U"/></g><path fill="#3a414a" d="M177-190C167-65 218 103 67 71c-23-6-38-20-44-43l32-5c15 47 100 32 89-28v-30C133-14 115 1 83 1 29 1 15-40 15-95c0-56 16-97 71-98 29-1 48 16 59 35 1-10 0-23 2-32h30zM94-22c36 0 50-32 50-73 0-42-14-75-50-75-39 0-46 34-46 75s6 73 46 73" id="ak"/><path fill="#3a414a" d="M114-163C36-179 61-72 57 0H25l-1-190h30c1 12-1 29 2 39 6-27 23-49 58-41v29" id="al"/><path fill="#3a414a" d="M100-194c63 0 86 42 84 106H49c0 40 14 67 53 68 26 1 43-12 49-29l28 8c-11 28-37 45-77 45C44 4 14-33 15-96c1-61 26-98 85-98zm52 81c6-60-76-77-97-28-3 7-6 17-6 28h103" id="am"/><path fill="#3a414a" d="M179-190L93 31C79 59 56 82 12 73V49c39 6 53-20 64-50L1-190h34L92-34l54-156h33" id="an"/><path fill="#3a414a" d="M135-143c-3-34-86-38-87 0 15 53 115 12 119 90S17 21 10-45l28-5c4 36 97 45 98 0-10-56-113-15-118-90-4-57 82-63 122-42 12 7 21 19 24 35" id="ao"/><path fill="#3a414a" d="M96-169c-40 0-48 33-48 73s9 75 48 75c24 0 41-14 43-38l32 2c-6 37-31 61-74 61-59 0-76-41-82-99-10-93 101-131 147-64 4 7 5 14 7 22l-32 3c-4-21-16-35-41-35" id="ap"/><path fill="#3a414a" d="M24 0v-261h32V0H24" id="aq"/><g id="l"><use transform="matrix(0.06172839506172839,0,0,0.06172839506172839,0,0)" xlink:href="#ak"/><use transform="matrix(0.06172839506172839,0,0,0.06172839506172839,12.345679012345679,0)" xlink:href="#al"/><use transform="matrix(0.06172839506172839,0,0,0.06172839506172839,19.691358024691358,0)" xlink:href="#am"/><use transform="matrix(0.06172839506172839,0,0,0.06172839506172839,32.03703703703704,0)" xlink:href="#an"/><use transform="matrix(0.06172839506172839,0,0,0.06172839506172839,43.14814814814815,0)" xlink:href="#ao"/><use transform="matrix(0.06172839506172839,0,0,0.06172839506172839,54.25925925925927,0)" xlink:href="#ap"/><use transform="matrix(0.06172839506172839,0,0,0.06172839506172839,65.37037037037038,0)" xlink:href="#ae"/><use transform="matrix(0.06172839506172839,0,0,0.06172839506172839,77.71604938271606,0)" xlink:href="#aq"/><use transform="matrix(0.06172839506172839,0,0,0.06172839506172839,82.59259259259261,0)" xlink:href="#am"/></g><use transform="matrix(0.06172839506172839,0,0,0.06172839506172839,0,0)" xlink:href="#ae" id="m"/><use transform="matrix(0.06172839506172839,0,0,0.06172839506172839,0,0)" xlink:href="#ag" id="n"/><path fill="#3a414a" d="M118-107v75H92v-75H18v-26h74v-75h26v75h74v26h-74" id="ar"/><g id="o"><use transform="matrix(0.06172839506172839,0,0,0.06172839506172839,0,0)" xlink:href="#ae"/><use transform="matrix(0.06172839506172839,0,0,0.06172839506172839,12.345679012345679,0)" xlink:href="#ar"/><use transform="matrix(0.06172839506172839,0,0,0.06172839506172839,25.30864197530864,0)" xlink:href="#ag"/></g><path fill="#fff" d="M205 0l-28-72H64L36 0H1l101-248h38L239 0h-34zm-38-99l-47-123c-12 45-31 82-46 123h93" id="as"/><use transform="matrix(0.06172839506172839,0,0,0.06172839506172839,0,0)" xlink:href="#as" id="p"/><path fill="#fff" d="M160-131c35 5 61 23 61 61C221 17 115-2 30 0v-248c76 3 177-17 177 60 0 33-19 50-47 57zm-97-11c50-1 110 9 110-42 0-47-63-36-110-37v79zm0 115c55-2 124 14 124-45 0-56-70-42-124-44v89" id="at"/><use transform="matrix(0.06172839506172839,0,0,0.06172839506172839,0,0)" xlink:href="#at" id="q"/><path fill="#fff" d="M212-179c-10-28-35-45-73-45-59 0-87 40-87 99 0 60 29 101 89 101 43 0 62-24 78-52l27 14C228-24 195 4 139 4 59 4 22-46 18-125c-6-104 99-153 187-111 19 9 31 26 39 46" id="au"/><use transform="matrix(0.06172839506172839,0,0,0.06172839506172839,0,0)" xlink:href="#au" id="r"/><path fill="#fff" d="M30-248c118-7 216 8 213 122C240-48 200 0 122 0H30v-248zM63-27c89 8 146-16 146-99s-60-101-146-95v194" id="av"/><use transform="matrix(0.06172839506172839,0,0,0.06172839506172839,0,0)" xlink:href="#av" id="s"/><path fill="#fff" d="M63-220v92h138v28H63V0H30v-248h175v28H63" id="aw"/><use transform="matrix(0.06172839506172839,0,0,0.06172839506172839,0,0)" xlink:href="#aw" id="t"/><path fill="#fff" d="M30 0v-248h187v28H63v79h144v27H63v87h162V0H30" id="ax"/><use transform="matrix(0.06172839506172839,0,0,0.06172839506172839,0,0)" xlink:href="#ax" id="u"/><path fill="#fff" d="M143 4C61 4 22-44 18-125c-5-107 100-154 193-111 17 8 29 25 37 43l-32 9c-13-25-37-40-76-40-61 0-88 39-88 99 0 61 29 100 91 101 35 0 62-11 79-27v-45h-74v-28h105v86C228-13 192 4 143 4" id="ay"/><use transform="matrix(0.06172839506172839,0,0,0.06172839506172839,0,0)" xlink:href="#ay" id="v"/><path fill="#333" d="M410 425v-1909h547v139H590V286h367v139H410" id="az"/><use transform="matrix(0.0078125,0,0,0.0078125,0,0)" xlink:href="#az" id="w"/><path fill="#999" d="M685 25c1 134 43 209 172 209h188v191H718c-189-5-295-108-295-299v-328c1-155-78-228-229-229v-195c150-4 229-75 229-231v-328c-2-190 109-299 295-299h327v190H857c-129 1-171 76-172 209v301c-5 144-88 222-207 252v4c118 31 207 107 207 252V25" id="aA"/><path fill="#999" d="M127-675c0-405 101-695 492-695 382 0 482 297 482 695 0 324-79 561-295 658-59 27-124 37-195 37-378 0-484-300-484-695zm580 451c143-96 121-451 101-680-12-138-46-246-191-246-149 0-184 107-199 248-19 180-21 469 36 598 29 67 72 101 159 103 37 0 69-6 94-23" id="aB"/><path fill="#999" d="M470 0v-305h289V0H470zm0-780v-305h289v305H470" id="aC"/><path fill="#999" d="M706-877c265 0 409 163 409 431 0 299-171 466-474 466-381 0-516-302-516-692 0-236 47-410 135-526 112-147 319-207 541-154 154 36 236 149 276 306l-265 37c-22-86-75-139-170-139-76 0-135 36-178 108s-64 179-64 318c54-94 164-155 306-155zm-74 678c138 0 201-98 201-239s-67-232-208-232c-125 0-205 73-205 202 0 149 67 269 212 269" id="aD"/><path fill="#999" d="M980-287V0H712v-287H71v-211l595-851h314v853h188v209H980zM712-496c2-204-7-417 9-609-118 224-277 405-414 609h405" id="aE"/><path fill="#999" d="M806 126c-4 191-105 299-295 299H184V234h188c129-1 171-75 172-209v-301c5-145 89-221 207-252v-4c-119-30-207-108-207-252v-301c-1-133-43-209-172-209H184v-190h327c186 0 295 109 295 299v328c-1 156 79 227 229 231v195c-151 1-229 74-229 229v328" id="aF"/><path fill="#999" d="M258 363l169-662h315L431 363H258" id="aG"/><g id="x"><use transform="matrix(0.0078125,0,0,0.0078125,0,0)" xlink:href="#aA"/><use transform="matrix(0.0078125,0,0,0.0078125,9.6015625,0)" xlink:href="#aB"/><use transform="matrix(0.0078125,0,0,0.0078125,19.203125,0)" xlink:href="#aC"/><use transform="matrix(0.0078125,0,0,0.0078125,28.8046875,0)" xlink:href="#aD"/><use transform="matrix(0.0078125,0,0,0.0078125,38.40625,0)" xlink:href="#aE"/><use transform="matrix(0.0078125,0,0,0.0078125,48.0078125,0)" xlink:href="#aB"/><use transform="matrix(0.0078125,0,0,0.0078125,57.609375,0)" xlink:href="#aF"/><use transform="matrix(0.0078125,0,0,0.0078125,67.2109375,0)" xlink:href="#aG"/></g><path fill="#999" d="M426-814c58-49 145-93 255-90 282 8 442 169 442 450 0 312-203 474-522 474-288 0-453-130-497-372l281-23c24 104 89 172 219 172 153 0 230-91 230-245 0-144-78-226-224-229-94-2-148 42-191 91H145l49-763h847v209H449" id="aH"/><g id="y"><use transform="matrix(0.0078125,0,0,0.0078125,0,0)" xlink:href="#aA"/><use transform="matrix(0.0078125,0,0,0.0078125,9.6015625,0)" xlink:href="#aB"/><use transform="matrix(0.0078125,0,0,0.0078125,19.203125,0)" xlink:href="#aC"/><use transform="matrix(0.0078125,0,0,0.0078125,28.8046875,0)" xlink:href="#aH"/><use transform="matrix(0.0078125,0,0,0.0078125,38.40625,0)" xlink:href="#aE"/><use transform="matrix(0.0078125,0,0,0.0078125,48.0078125,0)" xlink:href="#aB"/><use transform="matrix(0.0078125,0,0,0.0078125,57.609375,0)" xlink:href="#aF"/><use transform="matrix(0.0078125,0,0,0.0078125,67.2109375,0)" xlink:href="#aG"/></g><g id="z"><use transform="matrix(0.0078125,0,0,0.0078125,0,0)" xlink:href="#aA"/><use transform="matrix(0.0078125,0,0,0.0078125,9.6015625,0)" xlink:href="#aB"/><use transform="matrix(0.0078125,0,0,0.0078125,19.203125,0)" xlink:href="#aC"/><use transform="matrix(0.0078125,0,0,0.0078125,28.8046875,0)" xlink:href="#aE"/><use transform="matrix(0.0078125,0,0,0.0078125,38.40625,0)" xlink:href="#aE"/><use transform="matrix(0.0078125,0,0,0.0078125,48.0078125,0)" xlink:href="#aB"/><use transform="matrix(0.0078125,0,0,0.0078125,57.609375,0)" xlink:href="#aF"/></g><path fill="#333" d="M270 425V286h367v-1631H270v-139h547V425H270" id="aI"/><use transform="matrix(0.0078125,0,0,0.0078125,0,0)" xlink:href="#aI" id="A"/><use transform="matrix(0.0078125,0,0,0.0078125,0,0)" xlink:href="#az" id="B"/><g id="C"><use transform="matrix(0.0078125,0,0,0.0078125,0,0)" xlink:href="#aA"/><use transform="matrix(0.0078125,0,0,0.0078125,9.6015625,0)" xlink:href="#aB"/><use transform="matrix(0.0078125,0,0,0.0078125,19.203125,0)" xlink:href="#aC"/><use transform="matrix(0.0078125,0,0,0.0078125,28.8046875,0)" xlink:href="#aH"/><use transform="matrix(0.0078125,0,0,0.0078125,38.40625,0)" xlink:href="#aE"/><use transform="matrix(0.0078125,0,0,0.0078125,48.0078125,0)" xlink:href="#aB"/><use transform="matrix(0.0078125,0,0,0.0078125,57.609375,0)" xlink:href="#aF"/></g><use transform="matrix(0.0078125,0,0,0.0078125,0,0)" xlink:href="#aI" id="D"/><path fill="#999" d="M138-1120c207-4 339-93 415-229h266v1140h323V0H149v-209h389v-891c-70 121-216 187-400 194v-214" id="aJ"/><path fill="#999" d="M1092-1126C914-878 744-630 663-296c-23 96-34 194-34 296H336c7-366 145-620 298-854 59-90 126-177 197-264H131v-231h961v223" id="aK"/><path fill="#999" d="M829-709c170 32 291 130 291 327 0 285-207 402-505 402-296 0-506-116-506-400 0-194 122-293 287-327v-4c-145-37-254-130-254-301 0-257 201-358 469-358 275 0 474 97 474 360 0 168-110 262-256 297v4zm-216-99c126 0 184-66 183-187-1-119-62-179-185-178-121 0-182 60-182 178 0 119 60 187 184 187zm4 630c149 0 213-80 212-227-2-138-77-206-220-206-139 1-209 76-211 210-2 147 70 223 219 223" id="aL"/><g id="E"><use transform="matrix(0.0078125,0,0,0.0078125,0,0)" xlink:href="#aA"/><use transform="matrix(0.0078125,0,0,0.0078125,9.6015625,0)" xlink:href="#aJ"/><use transform="matrix(0.0078125,0,0,0.0078125,19.203125,0)" xlink:href="#aC"/><use transform="matrix(0.0078125,0,0,0.0078125,28.8046875,0)" xlink:href="#aK"/><use transform="matrix(0.0078125,0,0,0.0078125,38.40625,0)" xlink:href="#aL"/><use transform="matrix(0.0078125,0,0,0.0078125,48.0078125,0)" xlink:href="#aB"/><use transform="matrix(0.0078125,0,0,0.0078125,57.609375,0)" xlink:href="#aF"/><use transform="matrix(0.0078125,0,0,0.0078125,67.2109375,0)" xlink:href="#aG"/></g><g id="F"><use transform="matrix(0.0078125,0,0,0.0078125,0,0)" xlink:href="#aA"/><use transform="matrix(0.0078125,0,0,0.0078125,9.6015625,0)" xlink:href="#aJ"/><use transform="matrix(0.0078125,0,0,0.0078125,19.203125,0)" xlink:href="#aC"/><use transform="matrix(0.0078125,0,0,0.0078125,28.8046875,0)" xlink:href="#aD"/><use transform="matrix(0.0078125,0,0,0.0078125,38.40625,0)" xlink:href="#aE"/><use transform="matrix(0.0078125,0,0,0.0078125,48.0078125,0)" xlink:href="#aB"/><use transform="matrix(0.0078125,0,0,0.0078125,57.609375,0)" xlink:href="#aF"/><use transform="matrix(0.0078125,0,0,0.0078125,67.2109375,0)" xlink:href="#aG"/></g><g id="G"><use transform="matrix(0.0078125,0,0,0.0078125,0,0)" xlink:href="#aA"/><use transform="matrix(0.0078125,0,0,0.0078125,9.6015625,0)" xlink:href="#aJ"/><use transform="matrix(0.0078125,0,0,0.0078125,19.203125,0)" xlink:href="#aC"/><use transform="matrix(0.0078125,0,0,0.0078125,28.8046875,0)" xlink:href="#aH"/><use transform="matrix(0.0078125,0,0,0.0078125,38.40625,0)" xlink:href="#aE"/><use transform="matrix(0.0078125,0,0,0.0078125,48.0078125,0)" xlink:href="#aB"/><use transform="matrix(0.0078125,0,0,0.0078125,57.609375,0)" xlink:href="#aF"/><use transform="matrix(0.0078125,0,0,0.0078125,67.2109375,0)" xlink:href="#aG"/></g><g id="H"><use transform="matrix(0.0078125,0,0,0.0078125,0,0)" xlink:href="#aA"/><use transform="matrix(0.0078125,0,0,0.0078125,9.6015625,0)" xlink:href="#aJ"/><use transform="matrix(0.0078125,0,0,0.0078125,19.203125,0)" xlink:href="#aC"/><use transform="matrix(0.0078125,0,0,0.0078125,28.8046875,0)" xlink:href="#aE"/><use transform="matrix(0.0078125,0,0,0.0078125,38.40625,0)" xlink:href="#aE"/><use transform="matrix(0.0078125,0,0,0.0078125,48.0078125,0)" xlink:href="#aB"/><use transform="matrix(0.0078125,0,0,0.0078125,57.609375,0)" xlink:href="#aF"/></g><g id="I"><use transform="matrix(0.0078125,0,0,0.0078125,0,0)" xlink:href="#aA"/><use transform="matrix(0.0078125,0,0,0.0078125,9.6015625,0)" xlink:href="#aJ"/><use transform="matrix(0.0078125,0,0,0.0078125,19.203125,0)" xlink:href="#aC"/><use transform="matrix(0.0078125,0,0,0.0078125,28.8046875,0)" xlink:href="#aK"/><use transform="matrix(0.0078125,0,0,0.0078125,38.40625,0)" xlink:href="#aL"/><use transform="matrix(0.0078125,0,0,0.0078125,48.0078125,0)" xlink:href="#aB"/><use transform="matrix(0.0078125,0,0,0.0078125,57.609375,0)" xlink:href="#aG"/></g><g id="J"><use transform="matrix(0.0078125,0,0,0.0078125,0,0)" xlink:href="#aJ"/><use transform="matrix(0.0078125,0,0,0.0078125,9.6015625,0)" xlink:href="#aC"/><use transform="matrix(0.0078125,0,0,0.0078125,19.203125,0)" xlink:href="#aD"/><use transform="matrix(0.0078125,0,0,0.0078125,28.8046875,0)" xlink:href="#aE"/><use transform="matrix(0.0078125,0,0,0.0078125,38.40625,0)" xlink:href="#aB"/><use transform="matrix(0.0078125,0,0,0.0078125,48.0078125,0)" xlink:href="#aG"/></g><g id="K"><use transform="matrix(0.0078125,0,0,0.0078125,0,0)" xlink:href="#aJ"/><use transform="matrix(0.0078125,0,0,0.0078125,9.6015625,0)" xlink:href="#aC"/><use transform="matrix(0.0078125,0,0,0.0078125,19.203125,0)" xlink:href="#aH"/><use transform="matrix(0.0078125,0,0,0.0078125,28.8046875,0)" xlink:href="#aE"/><use transform="matrix(0.0078125,0,0,0.0078125,38.40625,0)" xlink:href="#aB"/><use transform="matrix(0.0078125,0,0,0.0078125,48.0078125,0)" xlink:href="#aG"/></g><g id="L"><use transform="matrix(0.0078125,0,0,0.0078125,0,0)" xlink:href="#aJ"/><use transform="matrix(0.0078125,0,0,0.0078125,9.6015625,0)" xlink:href="#aC"/><use transform="matrix(0.0078125,0,0,0.0078125,19.203125,0)" xlink:href="#aE"/><use transform="matrix(0.0078125,0,0,0.0078125,28.8046875,0)" xlink:href="#aE"/><use transform="matrix(0.0078125,0,0,0.0078125,38.40625,0)" xlink:href="#aB"/><use transform="matrix(0.0078125,0,0,0.0078125,48.0078125,0)" xlink:href="#aF"/></g><path fill="#333" d="M677 91c1 136 41 195 171 195h213v139H796c-186-8-294-116-294-303v-351c-3-164-120-222-275-232v-137c155-10 275-69 275-231v-352c6-189 106-303 294-303h265v139H848c-126-3-171 67-171 195v346c-5 158-108 234-231 274 128 36 231 115 231 274V91" id="aM"/><path fill="#333" d="M611-1370c266 0 451 106 451 368 0 147-77 243-154 327-132 144-316 255-451 395-42 44-75 87-96 134h723V0H144v-117c124-264 387-411 582-603 73-72 151-147 151-271 0-161-104-231-266-231-163 0-249 90-268 238l-184-17c35-233 185-369 452-369" id="aN"/><path fill="#333" d="M726 122c-7 187-108 303-294 303H167V286h213c129-2 172-59 172-195v-347c5-160 106-236 230-276-125-36-230-116-230-272v-346c2-128-45-195-172-195H167v-139h265c187 7 294 114 294 303v352c4 162 120 221 275 231v137c-155 10-275 68-275 232v351" id="aO"/><g id="M"><use transform="matrix(0.0078125,0,0,0.0078125,0,0)" xlink:href="#aM"/><use transform="matrix(0.0078125,0,0,0.0078125,9.6015625,0)" xlink:href="#aN"/><use transform="matrix(0.0078125,0,0,0.0078125,19.203125,0)" xlink:href="#aO"/></g><g id="N"><use transform="matrix(0.0078125,0,0,0.0078125,0,0)" xlink:href="#aA"/><use transform="matrix(0.0078125,0,0,0.0078125,9.6015625,0)" xlink:href="#aJ"/><use transform="matrix(0.0078125,0,0,0.0078125,19.203125,0)" xlink:href="#aC"/><use transform="matrix(0.0078125,0,0,0.0078125,28.8046875,0)" xlink:href="#aK"/><use transform="matrix(0.0078125,0,0,0.0078125,38.40625,0)" xlink:href="#aL"/><use transform="matrix(0.0078125,0,0,0.0078125,48.0078125,0)" xlink:href="#aB"/><use transform="matrix(0.0078125,0,0,0.0078125,57.609375,0)" xlink:href="#aG"/></g><g id="O"><use transform="matrix(0.0078125,0,0,0.0078125,0,0)" xlink:href="#aJ"/><use transform="matrix(0.0078125,0,0,0.0078125,9.6015625,0)" xlink:href="#aC"/><use transform="matrix(0.0078125,0,0,0.0078125,19.203125,0)" xlink:href="#aE"/><use transform="matrix(0.0078125,0,0,0.0078125,28.8046875,0)" xlink:href="#aE"/><use transform="matrix(0.0078125,0,0,0.0078125,38.40625,0)" xlink:href="#aB"/><use transform="matrix(0.0078125,0,0,0.0078125,48.0078125,0)" xlink:href="#aG"/></g><path fill="#999" d="M135-968c34-256 187-402 480-402 217 0 371 75 441 220 45 93 40 219-8 308-114 212-348 323-508 488-38 39-66 80-85 123h654V0H123v-195c112-245 321-399 515-560 57-48 107-96 142-157 14-26 22-53 22-80-1-104-73-156-185-154-131 2-181 74-199 194" id="aP"/><g id="P"><use transform="matrix(0.0078125,0,0,0.0078125,0,0)" xlink:href="#aP"/><use transform="matrix(0.0078125,0,0,0.0078125,9.6015625,0)" xlink:href="#aF"/></g><g id="Q"><use transform="matrix(0.0078125,0,0,0.0078125,0,0)" xlink:href="#aP"/><use transform="matrix(0.0078125,0,0,0.0078125,9.6015625,0)" xlink:href="#aG"/></g><g id="R"><use transform="matrix(0.0078125,0,0,0.0078125,0,0)" xlink:href="#aB"/><use transform="matrix(0.0078125,0,0,0.0078125,9.6015625,0)" xlink:href="#aC"/><use transform="matrix(0.0078125,0,0,0.0078125,19.203125,0)" xlink:href="#aH"/><use transform="matrix(0.0078125,0,0,0.0078125,28.8046875,0)" xlink:href="#aE"/><use transform="matrix(0.0078125,0,0,0.0078125,38.40625,0)" xlink:href="#aB"/><use transform="matrix(0.0078125,0,0,0.0078125,48.0078125,0)" xlink:href="#aF"/></g></defs></g></svg>