<svg xmlns="http://www.w3.org/2000/svg" xmlns:xlink="http://www.w3.org/1999/xlink" xmlns:lucid="lucid" width="1760" height="1360"><g transform="translate(0 0)" lucid:page-tab-id="0_0"><path d="M310 800h410v340H310z" stroke="#000" stroke-width="2" fill="#fff"/><use xlink:href="#a" transform="matrix(1,0,0,1,315,805) translate(139.075 14.4)"/><use xlink:href="#b" transform="matrix(1,0,0,1,315,805) translate(193.975 14.4)"/><path d="M390 870c0 16.57-13.43 30-30 30s-30-13.43-30-30 13.43-30 30-30 30 13.43 30 30z" stroke="#000" stroke-width="2" fill="#fff"/><use xlink:href="#c" transform="matrix(1,0,0,1,335,845) translate(18.025 28.6)"/><path d="M710 870c0 16.57-13.43 30-30 30s-30-13.43-30-30 13.43-30 30-30 30 13.43 30 30z" stroke="#000" stroke-width="2" fill="#fff"/><use xlink:href="#c" transform="matrix(1,0,0,1,655,845) translate(18.025 28.6)"/><path d="M460 1050c0 16.57-13.43 30-30 30s-30-13.43-30-30 13.43-30 30-30 30 13.43 30 30z" stroke="#000" stroke-width="2" fill="#fff"/><use xlink:href="#d" transform="matrix(1,0,0,1,405,1025) translate(12.5 28.6)"/><path d="M620 1050c0 16.57-13.43 30-30 30s-30-13.43-30-30 13.43-30 30-30 30 13.43 30 30z" stroke="#000" stroke-width="2" fill="#fff"/><use xlink:href="#d" transform="matrix(1,0,0,1,565,1025) translate(12.5 28.6)"/><path d="M454 964c-13.25 0-24-10.75-24-24 0-10.6 6.5-19.55 16.58-22.83C446 886 486 880 502 892c8-18 48-12 48 6 24-6 48 18 32 48 16 24 0 54-32 42-8 15.6-40 15.6-48 0-16 12-48 6-48-24z" stroke="#000" stroke-width="2" fill="#fff"/><use xlink:href="#e" transform="matrix(1,0,0,1,435,885) translate(16.049999999999997 58.6)"/><use xlink:href="#f" transform="matrix(1,0,0,1,435,885) translate(88 58.6)"/><path d="M392 870h26.32v44.65h8.83" stroke="#000" stroke-width="2" fill="none"/><path d="M392.03 871h-1.1l.07-.98-.03-1.02h1.06z"/><path d="M442.4 914.65l-14.25 4.63V910z" stroke="#000" stroke-width="2"/><path d="M648 870h-32.76v37.5H600" stroke="#000" stroke-width="2" fill="none"/><path d="M649 869.98l.03 1.02h-1.06v-2h1.1z"/><path d="M584.72 907.5L599 902.9v9.27z" stroke="#000" stroke-width="2"/><path d="M509.5 997.72v47.9h-30.4" stroke="#000" stroke-width="2" fill="none"/><path d="M510.45 997.26l.05.02v.47h-2v-1.6z"/><path d="M463.83 1045.63l14.26-4.64v9.26z" stroke="#000" stroke-width="2"/><path d="M583.72 983.53v17.67" stroke="#000" stroke-width="2" fill="none"/><path/><path d="M583.72 1016.47l-4.64-14.27h9.27z" stroke="#000" stroke-width="2"/><path d="M260 530c0 27.6-22.4 50-50 50s-50-22.4-50-50 22.4-50 50-50 50 22.4 50 50z" stroke="#000" stroke-width="2" fill="#fff"/><use xlink:href="#g" transform="matrix(1,0,0,1,165,485) translate(16.025 48.6)"/><use xlink:href="#h" transform="matrix(1,0,0,1,165,485) translate(63.975 48.6)"/><path d="M620 570c0 27.6-22.4 50-50 50s-50-22.4-50-50 22.4-50 50-50 50 22.4 50 50z" stroke="#000" stroke-width="2" fill="#fff"/><use xlink:href="#g" transform="matrix(1,0,0,1,525,525) translate(16.025 48.6)"/><use xlink:href="#i" transform="matrix(1,0,0,1,525,525) translate(63.975 48.6)"/><path d="M600 1270c0 27.6-22.4 50-50 50s-50-22.4-50-50 22.4-50 50-50 50 22.4 50 50z" stroke="#000" stroke-width="2" fill="#fff"/><use xlink:href="#g" transform="matrix(1,0,0,1,505,1225) translate(16.025 48.6)"/><use xlink:href="#j" transform="matrix(1,0,0,1,505,1225) translate(63.975 48.6)"/><path d="M640 780h80v20h-80zM310 780h80v20h-80zM600 1140h80v20h-80zM360 1140h80v20h-80z" stroke="#000" stroke-width="2" fill="#fff"/><path d="M590 1082v28h50v10.5" stroke="#000" stroke-width="2" fill="none"/><path d="M589.98 1081l1.02-.03v1.06h-2v-1.1z"/><path d="M640 1135.76l-4.64-14.26h9.28z" stroke="#000" stroke-width="2"/><path d="M430 1082v28h-30v10.5" stroke="#000" stroke-width="2" fill="none"/><path d="M429.98 1081l1.02-.03v1.06h-2v-1.1z"/><path d="M400 1135.76l-4.64-14.26h9.28z" stroke="#000" stroke-width="2"/><path d="M350 802v20.25" stroke="#000" stroke-width="2" fill="none"/><path d="M351 802.03h-2V801h2z"/><path d="M350 837.52l-4.64-14.27h9.28z" stroke="#000" stroke-width="2"/><path d="M680 802v18.5" stroke="#000" stroke-width="2" fill="none"/><path d="M681 802.03h-2V801h2z"/><path d="M680 835.76l-4.64-14.26h9.28z" stroke="#000" stroke-width="2"/><path d="M210 582v98h140v80.5" stroke="#000" stroke-width="2" fill="none"/><path d="M210 581l1-.03v1.06h-2v-1.08z"/><path d="M350 775.76l-4.64-14.26h9.28z" stroke="#000" stroke-width="2"/><path d="M570 622v78h110v60.5" stroke="#000" stroke-width="2" fill="none"/><path d="M570 621l1-.03v1.06h-2v-1.08z"/><path d="M680 775.76l-4.64-14.26h9.28z" stroke="#000" stroke-width="2"/><path d="M400 1162v108h80.5" stroke="#000" stroke-width="2" fill="none"/><path d="M401 1162.03h-2V1161h2z"/><path d="M495.76 1270l-14.26 4.64v-9.28z" stroke="#000" stroke-width="2"/><path d="M640 1162v108h-20.5" stroke="#000" stroke-width="2" fill="none"/><path d="M641 1162.03h-2V1161h2z"/><path d="M604.24 1270l14.26-4.64v9.28z" stroke="#000" stroke-width="2"/><path d="M720 760h240v60H720z" stroke="#000" stroke-opacity="0" stroke-width="2" fill="#fff" fill-opacity="0"/><use xlink:href="#k" transform="matrix(1,0,0,1,725,765) translate(17.07499999999999 17.799999999999997)"/><use xlink:href="#l" transform="matrix(1,0,0,1,725,765) translate(71.07499999999999 17.799999999999997)"/><use xlink:href="#m" transform="matrix(1,0,0,1,725,765) translate(91.07499999999999 17.799999999999997)"/><use xlink:href="#n" transform="matrix(1,0,0,1,725,765) translate(145.975 17.799999999999997)"/><use xlink:href="#o" transform="matrix(1,0,0,1,725,765) translate(95 39.4)"/><path d="M720 1100h240v60H720z" stroke="#000" stroke-opacity="0" stroke-width="2" fill="#fff" fill-opacity="0"/><use xlink:href="#p" transform="matrix(1,0,0,1,725,1105) translate(35.599999999999994 17.799999999999997)"/><use xlink:href="#q" transform="matrix(1,0,0,1,725,1105) translate(103.6 17.799999999999997)"/><use xlink:href="#r" transform="matrix(1,0,0,1,725,1105) translate(144.5 17.799999999999997)"/><use xlink:href="#s" transform="matrix(1,0,0,1,725,1105) translate(59.025 39.4)"/><use xlink:href="#o" transform="matrix(1,0,0,1,725,1105) translate(130.975 39.4)"/><path d="M1064.8 1008.8c-22.53 0-40.8-19.7-40.8-44 0-19.44 11.05-35.84 28.2-41.84-1-57.16 67-68.16 94.2-46.16 13.6-33 81.6-22 81.6 11 40.8-11 81.6 33 54.4 88 27.2 44 0 99-54.4 77-13.6 28.6-68 28.6-81.6 0-27.2 22-81.6 11-81.6-44z" stroke="#000" stroke-width="2" fill="#fff"/><use xlink:href="#t" transform="matrix(1,0,0,1,1029,859.8038248124075) translate(67.05 108.60000000000001)"/><use xlink:href="#f" transform="matrix(1,0,0,1,1029,859.8038248124075) translate(149 108.60000000000001)"/><path d="M1148.6 504.02h160v120h-160zM1148.6 484.02h48v20h-48zM1268.6 484.02h40v20h-40zM1148.6 624.02h40v20h-40zM1268.6 624.02h40v20h-40z" stroke="#000" stroke-width="2" fill="#fff"/><path d="M1193.6 592.02c-8.3 0-15-7.16-15-16 0-7.07 4.06-13.03 10.36-15.22-.37-20.78 24.63-24.78 34.63-16.78 5-12 30-8 30 4 15-4 30 12 20 32 10 16 0 36-20 28-5 10.4-25 10.4-30 0-10 8-30 4-30-16z" stroke="#000" stroke-width="2" fill="#fff"/><use xlink:href="#u" transform="matrix(1,0,0,1,1183.593306578287,541.0191240620376) translate(11.524999999999999 38.6)"/><path d="M1180.6 528.02c0 4.42-3.6 8-8 8-4.42 0-8-3.58-8-8s3.58-8 8-8c4.4 0 8 3.58 8 8zM1296.6 528.02c0 4.42-3.6 8-8 8-4.42 0-8-3.58-8-8s3.58-8 8-8c4.4 0 8 3.58 8 8z" stroke="#000" stroke-width="2" fill="#fff"/><path d="M1172.67 538.04v.1l.2.74.24.53.3.43.3.34.4.3.52.24.7.22 1.08.13 2.03-.12 17.9-3.76 1.6.18 1.07.32.82.4.67.5.55.6.48.7" stroke="#000" stroke-width="2" fill="none"/><path d="M1172.6 537.04l.98-.2.1 1.14-2 .16-.1-1.3zM1202.9 540.42l-1.9.7-.38-.86 1.8-.84z"/><path d="M1288.5 538.04l-.8 9.38-1.52 4.76-1.8 3.1-2.1 2.33-2.63 1.9-1.87.85" stroke="#000" stroke-width="2" fill="none"/><path d="M1289.5 538.15l-2-.17.1-1.14 1 .2 1-.2zM1278.22 561.25l-1.1.5-.1-.55-.5-1.38.87-.4z"/><path d="M1176.6 608.02c0 4.42-3.6 8-8 8-4.42 0-8-3.58-8-8s3.58-8 8-8c4.4 0 8 3.58 8 8zM1296.6 608.02c0 4.42-3.6 8-8 8-4.42 0-8-3.58-8-8s3.58-8 8-8c4.4 0 8 3.58 8 8z" stroke="#000" stroke-width="2" fill="#fff"/><path d="M1168.72 598l.16-1.32.73-1.77 1.36-1.72 4.33-3.06 4.98-3.13" stroke="#000" stroke-width="2" fill="none"/><path d="M1169.7 598.1l-.12 1.1-1-.2-1.02.2.17-1.34zM1181.74 587.26l-.95.6-1.07-1.7.8-.5z"/><path d="M1288.46 598l-.3-2.1-1.26-3.1-1.76-2.3-1.8-1.4-1.72-.72-1.65-.22-.94.12" stroke="#000" stroke-width="2" fill="none"/><path d="M1289.63 599.2l-1.04-.2-1 .2-.13-1.08 1.98-.27zM1279.3 589.13l-1.14.32-.13-1.1-.26-.87.98-.28z"/><path d="M1168.6 622.02v-3.98" stroke="#000" stroke-width="2" fill="none"/><path d="M1169.6 623.02h-2V622h2zM1169.6 618.06h-2v-1.22l1 .2 1-.2z"/><path d="M1288.6 622.02v-3.98" stroke="#000" stroke-width="2" fill="none"/><path d="M1289.6 623.02h-2V622h2zM1289.6 618.06h-2v-1.22l1 .2 1-.2z"/><path d="M1172.6 518v-11.98" stroke="#000" stroke-width="2" fill="none"/><path d="M1173.6 519.2l-1-.2-1 .2v-1.23h2zM1173.6 506.04h-2v-1.02h2z"/><path d="M1288.6 518v-11.98" stroke="#000" stroke-width="2" fill="none"/><path d="M1289.6 519.2l-1-.2-1 .2v-1.23h2zM1289.6 506.04h-2v-1.02h2z"/><path d="M1456 772h160v120h-160zM1456 752h48v20h-48zM1576 752h40v20h-40zM1456 892h40v20h-40zM1576 892h40v20h-40z" stroke="#000" stroke-width="2" fill="#fff"/><path d="M1501 860c-8.28 0-15-7.16-15-16 0-7.07 4.06-13.03 10.36-15.22C1496 808 1521 804 1531 812c5-12 30-8 30 4 15-4 30 12 20 32 10 16 0 36-20 28-5 10.4-25 10.4-30 0-10 8-30 4-30-16z" stroke="#000" stroke-width="2" fill="#fff"/><use xlink:href="#u" transform="matrix(1,0,0,1,1491,809) translate(11.524999999999999 38.6)"/><path d="M1488 796c0 4.42-3.58 8-8 8s-8-3.58-8-8 3.58-8 8-8 8 3.58 8 8zM1604 796c0 4.42-3.58 8-8 8s-8-3.58-8-8 3.58-8 8-8 8 3.58 8 8z" stroke="#000" stroke-width="2" fill="#fff"/><path d="M1480.08 806.02v.1l.2.75.23.52.3.4.32.35.4.3.5.24.7.2 1.08.13 2.04-.12 17.9-3.75 1.6.18 1.07.33.83.4.66.5.56.58.48.7" stroke="#000" stroke-width="2" fill="none"/><path d="M1480 805.02l1-.2.08 1.14-2 .16-.1-1.3zM1510.3 808.4l-1.88.7-.4-.86 1.82-.84z"/><path d="M1595.9 806.02l-.8 9.38-1.5 4.76-1.8 3.1-2.1 2.33-2.64 1.87-1.87.86" stroke="#000" stroke-width="2" fill="none"/><path d="M1596.9 806.13l-1.98-.17.1-1.14.98.2 1.02-.2zM1585.63 829.23l-1.1.5-.1-.55-.5-1.38.86-.4z"/><path d="M1484 876c0 4.42-3.58 8-8 8s-8-3.58-8-8 3.58-8 8-8 8 3.58 8 8zM1604 876c0 4.42-3.58 8-8 8s-8-3.58-8-8 3.58-8 8-8 8 3.58 8 8z" stroke="#000" stroke-width="2" fill="#fff"/><path d="M1476.12 866l.17-1.34.72-1.77 1.34-1.74 4.33-3.06 5-3.13" stroke="#000" stroke-width="2" fill="none"/><path d="M1477.12 866.08l-.14 1.1-.98-.2-1.03.2.16-1.34zM1489.15 855.24l-.95.6-1.06-1.7.8-.5z"/><path d="M1595.87 866l-.3-2.13-1.26-3.08-1.75-2.32-1.8-1.4-1.72-.72-1.66-.22-.94.12" stroke="#000" stroke-width="2" fill="none"/><path d="M1597.04 867.2l-1.04-.22-.98.2-.15-1.08 1.98-.27zM1586.7 857.1l-1.14.33-.12-1.1-.26-.87.98-.28z"/><path d="M1476 890v-3.98" stroke="#000" stroke-width="2" fill="none"/><path d="M1477 891h-2v-1.03h2zM1477 886.05h-2v-1.23l1 .2 1-.2z"/><path d="M1596 890v-3.98" stroke="#000" stroke-width="2" fill="none"/><path d="M1597 891h-2v-1.03h2zM1597 886.05h-2v-1.23l1 .2 1-.2z"/><path d="M1480 785.98V774" stroke="#000" stroke-width="2" fill="none"/><path d="M1481 787.18l-1-.2-1 .2v-1.23h2zM1481 774.03h-2V773h2z"/><path d="M1596 785.98V774" stroke="#000" stroke-width="2" fill="none"/><path d="M1597 787.18l-1-.2-1 .2v-1.23h2zM1597 774.03h-2V773h2zM1292.85 966.1h-3.9v-2h3.9zm15.6 0h-7.8v-2h7.8zm15.58 0h-7.8v-2h7.8zm15.6 0h-7.8v-2h7.8zm15.6 0h-7.8v-2h7.8zm15.58 0h-7.8v-2h7.8zm1.68-8.13h-2v-7.8h2zm0-15.6h-2v-7.78h2zm0-15.58h-2V919h2zm0-15.6h-2v-1.85h2zm0-31.18h-2v-7.8h2zm0-15.6h-2v-7.8h2zm0-15.6h-2v-7.78h2zm5.55-15.82h-5.55v.24h-2V831h7.55zm15.6 0h-7.8v-2h7.8zm15.58 0h-7.78v-2h7.8zm15.6 0h-7.8v-2h7.8zm11.7 0h-3.9v-2h3.9z"/><path d="M1288.98 966.1h-1.4l.54-1.45.17-.55h.68zM1451.76 832l-14.26 4.64v-9.28z"/><path d="M1455 832l-18.5 6v-12zm-16.5 3.26l10.03-3.26-10.03-3.26z"/><g><use xlink:href="#v" transform="matrix(1,0,0,1,1352.4757113052178,887.7499118395743) translate(0 14.4)"/></g><path d="M1160.35 860.4h-2v-4h2zm0-11.93h-2v-7.95h2zm0-15.9h-2v-7.95h2zm0-15.9h-2v-7.94h2zm0-15.9h-2v-7.94h2zm0-15.88h-2v-7.96h2zm0-15.9h-2v-7.96h2zm0-15.9h-2v-7.95h2zm12.95-8.9h-7.95v-2h7.95zm47.68 0h-7.94v-2h7.94zm8.6-1.34h-2v-7.94h2zm0-15.9h-2v-7.94h2zm0-15.9h-2v-7.93h2zm0-15.88h-2v-7.95h2zm0-15.9h-2v-7.94h2zm0-15.9h-2v-7.94h2zm0-15.9h-2v-3.96h2z"/><path d="M1160.35 860.87l-1.2.62-.8.47v-1.6h2zM1233.23 642.52h-9.27l4.63-14.26z"/><path d="M1234.6 643.52h-12.02l6-18.5zm-9.27-2h6.52l-3.26-10.03z"/><g><use xlink:href="#v" transform="matrix(1,0,0,1,1174.9717681045736,732.4034335582421) translate(0 14.4)"/></g><path d="M1022 966.07h-3.97v-2h3.98zm-11.94 0h-7.97v-2h7.96zm-15.93 0h-7.97v-2h7.97zm-15.94 0h-7.97v-2h7.96zm-15.94 0h-7.97v-2h7.96zm-15.93 0h-7.97v-2h7.97zm-15.94 0h-7.97v-2h7.96zm-15.94 0h-7.97v-2h7.96zm-15.93 0h-7.97v-2h7.97zm-15.94 0h-7.97v-2h7.96zm-15.94 0h-7.97v-2h7.96zm-15.94 0h-7.96v-2h7.96zm-15.93 0h-7.98v-2h7.97zm-47.8 0H779v-2H787zm-15.94 0h-7.97v-2h7.96zm-15.94 0h-7.96v-2h7.96zm-15.93 0h-7.98v-2h7.97zm-15.94 0h-7.97v-2h7.96zm-15.94 0h-7.97v-2h7.97zm-15.93 0h-7.98v-2h7.97zm-15.95 0h-7.96v-2h7.95zm-15.93 0h-7.97v-2h7.97zm-15.93 0h-7.98v-2h7.97zm-15.95 0h-7.96v-2h7.95zm-15.93 0h-3.98v-2h3.98z"/><path d="M1023 964.8l.06 1.27H1022v-2h1.04zM606.74 969.7l-14.27-4.63 14.27-4.63z"/><path d="M607.74 971.08l-18.5-6 18.5-6.02zm-12.03-6l10.04 3.25v-6.52z"/><g><use xlink:href="#v" transform="matrix(1,0,0,1,787.1229679665972,954.2713389385204) translate(0 14.4)"/></g><defs><path d="M210-169c-67 3-38 105-44 169h-31v-121c0-29-5-50-35-48C34-165 62-65 56 0H25l-1-190h30c1 10-1 24 2 32 10-44 99-50 107 0 11-21 27-35 58-36 85-2 47 119 55 194h-31v-121c0-29-5-49-35-48" id="w"/><path d="M141-36C126-15 110 5 73 4 37 3 15-17 15-53c-1-64 63-63 125-63 3-35-9-54-41-54-24 1-41 7-42 31l-33-3c5-37 33-52 76-52 45 0 72 20 72 64v82c-1 20 7 32 28 27v20c-31 9-61-2-59-35zM48-53c0 20 12 33 32 33 41-3 63-29 60-74-43 2-92-5-92 41" id="x"/><path d="M96-169c-40 0-48 33-48 73s9 75 48 75c24 0 41-14 43-38l32 2c-6 37-31 61-74 61-59 0-76-41-82-99-10-93 101-131 147-64 4 7 5 14 7 22l-32 3c-4-21-16-35-41-35" id="y"/><path d="M114-163C36-179 61-72 57 0H25l-1-190h30c1 12-1 29 2 39 6-27 23-49 58-41v29" id="z"/><path d="M100-194c62-1 85 37 85 99 1 63-27 99-86 99S16-35 15-95c0-66 28-99 85-99zM99-20c44 1 53-31 53-75 0-43-8-75-51-75s-53 32-53 75 10 74 51 75" id="A"/><g id="a"><use transform="matrix(0.05,0,0,0.05,0,0)" xlink:href="#w"/><use transform="matrix(0.05,0,0,0.05,14.950000000000001,0)" xlink:href="#x"/><use transform="matrix(0.05,0,0,0.05,24.950000000000003,0)" xlink:href="#y"/><use transform="matrix(0.05,0,0,0.05,33.95,0)" xlink:href="#z"/><use transform="matrix(0.05,0,0,0.05,39.900000000000006,0)" xlink:href="#A"/></g><path d="M24-231v-30h32v30H24zM24 0v-190h32V0H24" id="B"/><path d="M117-194c89-4 53 116 60 194h-32v-121c0-31-8-49-39-48C34-167 62-67 57 0H25l-1-190h30c1 10-1 24 2 32 11-22 29-35 61-36" id="C"/><path d="M135-143c-3-34-86-38-87 0 15 53 115 12 119 90S17 21 10-45l28-5c4 36 97 45 98 0-10-56-113-15-118-90-4-57 82-63 122-42 12 7 21 19 24 35" id="D"/><path d="M59-47c-2 24 18 29 38 22v24C64 9 27 4 27-40v-127H5v-23h24l9-43h21v43h35v23H59v120" id="E"/><path d="M100-194c63 0 86 42 84 106H49c0 40 14 67 53 68 26 1 43-12 49-29l28 8c-11 28-37 45-77 45C44 4 14-33 15-96c1-61 26-98 85-98zm52 81c6-60-76-77-97-28-3 7-6 17-6 28h103" id="F"/><g id="b"><use transform="matrix(0.05,0,0,0.05,0,0)" xlink:href="#B"/><use transform="matrix(0.05,0,0,0.05,3.95,0)" xlink:href="#C"/><use transform="matrix(0.05,0,0,0.05,13.949999999999998,0)" xlink:href="#D"/><use transform="matrix(0.05,0,0,0.05,22.95,0)" xlink:href="#E"/><use transform="matrix(0.05,0,0,0.05,27.950000000000003,0)" xlink:href="#x"/><use transform="matrix(0.05,0,0,0.05,37.95,0)" xlink:href="#C"/><use transform="matrix(0.05,0,0,0.05,47.95,0)" xlink:href="#y"/><use transform="matrix(0.05,0,0,0.05,56.95,0)" xlink:href="#F"/></g><g id="c"><use transform="matrix(0.05,0,0,0.05,0,0)" xlink:href="#B"/><use transform="matrix(0.05,0,0,0.05,3.95,0)" xlink:href="#C"/></g><path d="M84 4C-5 8 30-112 23-190h32v120c0 31 7 50 39 49 72-2 45-101 50-169h31l1 190h-30c-1-10 1-25-2-33-11 22-28 36-60 37" id="G"/><g id="d"><use transform="matrix(0.05,0,0,0.05,0,0)" xlink:href="#A"/><use transform="matrix(0.05,0,0,0.05,10,0)" xlink:href="#G"/><use transform="matrix(0.05,0,0,0.05,20,0)" xlink:href="#E"/></g><g id="e"><use transform="matrix(0.05,0,0,0.05,0,0)" xlink:href="#B"/><use transform="matrix(0.05,0,0,0.05,3.95,0)" xlink:href="#C"/><use transform="matrix(0.05,0,0,0.05,13.949999999999998,0)" xlink:href="#D"/><use transform="matrix(0.05,0,0,0.05,22.95,0)" xlink:href="#E"/><use transform="matrix(0.05,0,0,0.05,27.950000000000003,0)" xlink:href="#x"/><use transform="matrix(0.05,0,0,0.05,37.95,0)" xlink:href="#C"/><use transform="matrix(0.05,0,0,0.05,47.95,0)" xlink:href="#y"/><use transform="matrix(0.05,0,0,0.05,56.95,0)" xlink:href="#F"/></g><path d="M177-190C167-65 218 103 67 71c-23-6-38-20-44-43l32-5c15 47 100 32 89-28v-30C133-14 115 1 83 1 29 1 15-40 15-95c0-56 16-97 71-98 29-1 48 16 59 35 1-10 0-23 2-32h30zM94-22c36 0 50-32 50-73 0-42-14-75-50-75-39 0-46 34-46 75s6 73 46 73" id="H"/><path d="M115-194c55 1 70 41 70 98S169 2 115 4C84 4 66-9 55-30l1 105H24l-1-265h31l2 30c10-21 28-34 59-34zm-8 174c40 0 45-34 45-75s-6-73-45-74c-42 0-51 32-51 76 0 43 10 73 51 73" id="I"/><path d="M106-169C34-169 62-67 57 0H25v-261h32l-1 103c12-21 28-36 61-36 89 0 53 116 60 194h-32v-121c2-32-8-49-39-48" id="J"/><g id="f"><use transform="matrix(0.05,0,0,0.05,0,0)" xlink:href="#H"/><use transform="matrix(0.05,0,0,0.05,10,0)" xlink:href="#z"/><use transform="matrix(0.05,0,0,0.05,15.949999999999998,0)" xlink:href="#x"/><use transform="matrix(0.05,0,0,0.05,25.950000000000003,0)" xlink:href="#I"/><use transform="matrix(0.05,0,0,0.05,35.95,0)" xlink:href="#J"/></g><path d="M190 0L58-211 59 0H30v-248h39L202-35l-2-213h31V0h-41" id="K"/><path d="M85-194c31 0 48 13 60 33l-1-100h32l1 261h-30c-2-10 0-23-3-31C134-8 116 4 85 4 32 4 16-35 15-94c0-66 23-100 70-100zm9 24c-40 0-46 34-46 75 0 40 6 74 45 74 42 0 51-32 51-76 0-42-9-74-50-73" id="L"/><g id="g"><use transform="matrix(0.05,0,0,0.05,0,0)" xlink:href="#K"/><use transform="matrix(0.05,0,0,0.05,12.950000000000001,0)" xlink:href="#A"/><use transform="matrix(0.05,0,0,0.05,22.950000000000003,0)" xlink:href="#L"/><use transform="matrix(0.05,0,0,0.05,32.95,0)" xlink:href="#F"/></g><path d="M27 0v-27h64v-190l-56 39v-29l58-41h29v221h61V0H27" id="M"/><use transform="matrix(0.05,0,0,0.05,0,0)" xlink:href="#M" id="h"/><path d="M101-251c82-7 93 87 43 132L82-64C71-53 59-42 53-27h129V0H18c2-99 128-94 128-182 0-28-16-43-45-43s-46 15-49 41l-32-3c6-41 34-60 81-64" id="N"/><use transform="matrix(0.05,0,0,0.05,0,0)" xlink:href="#N" id="i"/><path d="M126-127c33 6 58 20 58 59 0 88-139 92-164 29-3-8-5-16-6-25l32-3c6 27 21 44 54 44 32 0 52-15 52-46 0-38-36-46-79-43v-28c39 1 72-4 72-42 0-27-17-43-46-43-28 0-47 15-49 41l-32-3c6-42 35-63 81-64 48-1 79 21 79 65 0 36-21 52-52 59" id="O"/><use transform="matrix(0.05,0,0,0.05,0,0)" xlink:href="#O" id="j"/><path d="M33 0v-248h34V0H33" id="P"/><g id="k"><use transform="matrix(0.05,0,0,0.05,0,0)" xlink:href="#P"/><use transform="matrix(0.05,0,0,0.05,5,0)" xlink:href="#C"/><use transform="matrix(0.05,0,0,0.05,15,0)" xlink:href="#I"/><use transform="matrix(0.05,0,0,0.05,25,0)" xlink:href="#G"/><use transform="matrix(0.05,0,0,0.05,35,0)" xlink:href="#E"/><use transform="matrix(0.05,0,0,0.05,40,0)" xlink:href="#D"/></g><g id="l"><use transform="matrix(0.05,0,0,0.05,0,0)" xlink:href="#E"/><use transform="matrix(0.05,0,0,0.05,5,0)" xlink:href="#A"/></g><g id="m"><use transform="matrix(0.05,0,0,0.05,0,0)" xlink:href="#w"/><use transform="matrix(0.05,0,0,0.05,14.950000000000001,0)" xlink:href="#x"/><use transform="matrix(0.05,0,0,0.05,24.950000000000003,0)" xlink:href="#y"/><use transform="matrix(0.05,0,0,0.05,33.95,0)" xlink:href="#z"/><use transform="matrix(0.05,0,0,0.05,39.900000000000006,0)" xlink:href="#A"/></g><g id="n"><use transform="matrix(0.05,0,0,0.05,0,0)" xlink:href="#B"/><use transform="matrix(0.05,0,0,0.05,3.95,0)" xlink:href="#C"/><use transform="matrix(0.05,0,0,0.05,13.949999999999998,0)" xlink:href="#D"/><use transform="matrix(0.05,0,0,0.05,22.95,0)" xlink:href="#E"/><use transform="matrix(0.05,0,0,0.05,27.950000000000003,0)" xlink:href="#x"/><use transform="matrix(0.05,0,0,0.05,37.95,0)" xlink:href="#C"/><use transform="matrix(0.05,0,0,0.05,47.95,0)" xlink:href="#y"/><use transform="matrix(0.05,0,0,0.05,56.95,0)" xlink:href="#F"/></g><g id="o"><use transform="matrix(0.05,0,0,0.05,0,0)" xlink:href="#C"/><use transform="matrix(0.05,0,0,0.05,10,0)" xlink:href="#A"/><use transform="matrix(0.05,0,0,0.05,20,0)" xlink:href="#L"/><use transform="matrix(0.05,0,0,0.05,30,0)" xlink:href="#F"/></g><path d="M140-251c81 0 123 46 123 126C263-46 219 4 140 4 59 4 17-45 17-125s42-126 123-126zm0 227c63 0 89-41 89-101s-29-99-89-99c-61 0-89 39-89 99S79-25 140-24" id="Q"/><g id="p"><use transform="matrix(0.05,0,0,0.05,0,0)" xlink:href="#Q"/><use transform="matrix(0.05,0,0,0.05,14,0)" xlink:href="#G"/><use transform="matrix(0.05,0,0,0.05,24,0)" xlink:href="#E"/><use transform="matrix(0.05,0,0,0.05,29,0)" xlink:href="#I"/><use transform="matrix(0.05,0,0,0.05,39,0)" xlink:href="#G"/><use transform="matrix(0.05,0,0,0.05,49,0)" xlink:href="#E"/><use transform="matrix(0.05,0,0,0.05,54,0)" xlink:href="#D"/></g><path d="M101-234c-31-9-42 10-38 44h38v23H63V0H32v-167H5v-23h27c-7-52 17-82 69-68v24" id="R"/><g id="q"><use transform="matrix(0.05,0,0,0.05,0,0)" xlink:href="#R"/><use transform="matrix(0.05,0,0,0.05,5,0)" xlink:href="#z"/><use transform="matrix(0.05,0,0,0.05,10.95,0)" xlink:href="#A"/><use transform="matrix(0.05,0,0,0.05,20.95,0)" xlink:href="#w"/></g><g id="r"><use transform="matrix(0.05,0,0,0.05,0,0)" xlink:href="#w"/><use transform="matrix(0.05,0,0,0.05,14.950000000000001,0)" xlink:href="#x"/><use transform="matrix(0.05,0,0,0.05,24.950000000000003,0)" xlink:href="#y"/><use transform="matrix(0.05,0,0,0.05,33.95,0)" xlink:href="#z"/><use transform="matrix(0.05,0,0,0.05,39.900000000000006,0)" xlink:href="#A"/></g><g id="s"><use transform="matrix(0.05,0,0,0.05,0,0)" xlink:href="#B"/><use transform="matrix(0.05,0,0,0.05,3.95,0)" xlink:href="#C"/><use transform="matrix(0.05,0,0,0.05,13.949999999999998,0)" xlink:href="#D"/><use transform="matrix(0.05,0,0,0.05,22.95,0)" xlink:href="#E"/><use transform="matrix(0.05,0,0,0.05,27.950000000000003,0)" xlink:href="#x"/><use transform="matrix(0.05,0,0,0.05,37.95,0)" xlink:href="#C"/><use transform="matrix(0.05,0,0,0.05,47.95,0)" xlink:href="#y"/><use transform="matrix(0.05,0,0,0.05,56.95,0)" xlink:href="#F"/></g><path d="M30-248c87 1 191-15 191 75 0 78-77 80-158 76V0H30v-248zm33 125c57 0 124 11 124-50 0-59-68-47-124-48v98" id="S"/><path d="M179-190L93 31C79 59 56 82 12 73V49c39 6 53-20 64-50L1-190h34L92-34l54-156h33" id="T"/><g id="t"><use transform="matrix(0.05,0,0,0.05,0,0)" xlink:href="#S"/><use transform="matrix(0.05,0,0,0.05,12,0)" xlink:href="#z"/><use transform="matrix(0.05,0,0,0.05,17.95,0)" xlink:href="#A"/><use transform="matrix(0.05,0,0,0.05,27.950000000000003,0)" xlink:href="#E"/><use transform="matrix(0.05,0,0,0.05,32.95,0)" xlink:href="#A"/><use transform="matrix(0.05,0,0,0.05,42.95,0)" xlink:href="#E"/><use transform="matrix(0.05,0,0,0.05,47.95,0)" xlink:href="#T"/><use transform="matrix(0.05,0,0,0.05,56.95,0)" xlink:href="#I"/><use transform="matrix(0.05,0,0,0.05,66.95,0)" xlink:href="#F"/></g><g id="u"><use transform="matrix(0.05,0,0,0.05,0,0)" xlink:href="#B"/><use transform="matrix(0.05,0,0,0.05,3.95,0)" xlink:href="#C"/><use transform="matrix(0.05,0,0,0.05,13.949999999999998,0)" xlink:href="#D"/><use transform="matrix(0.05,0,0,0.05,22.95,0)" xlink:href="#E"/><use transform="matrix(0.05,0,0,0.05,27.950000000000003,0)" xlink:href="#x"/><use transform="matrix(0.05,0,0,0.05,37.95,0)" xlink:href="#C"/><use transform="matrix(0.05,0,0,0.05,47.95,0)" xlink:href="#y"/><use transform="matrix(0.05,0,0,0.05,56.95,0)" xlink:href="#F"/></g><g id="v"><use transform="matrix(0.05,0,0,0.05,0,0)" xlink:href="#y"/><use transform="matrix(0.05,0,0,0.05,9,0)" xlink:href="#A"/><use transform="matrix(0.05,0,0,0.05,19,0)" xlink:href="#I"/><use transform="matrix(0.05,0,0,0.05,29,0)" xlink:href="#T"/></g></defs></g></svg>